# xmcd CD database file
#
# Track frame offsets:
#	150
#	25375
#	59330
#	94585
#	125880
#	148110
#	179055
#	212855
#	236800
#
# Disc length: 3488 seconds
#
# Revision: 0
# Processed by: cddbd v1.5.2PL0 Copyright (c) Steve Scherf et al.
# Submitted via: CDex 1.70beta2
#
DISCID=8f0d9e09
DTITLE=Malte Burba, Albrecht Riermeier - Harmonia Experimentale
DYEAR=1992
DGENRE=Jazz
TTITLE0=Die rechte...
TTITLE1=1000 Nächte
TTITLE2=Kreuzberg Boulevard
TTITLE3=Circle III
TTITLE4=Die linke...
TTITLE5=Ohne Titel 92
TTITLE6=Aquarius
TTITLE7=still unanswered
TTITLE8=Die rechte und die linke Hande des Teufels
EXTD=YEAR: 1992
EXTT0=
EXTT1=
EXTT2=
EXTT3=
EXTT4=
EXTT5=
EXTT6=
EXTT7=
EXTT8=
PLAYORDER=
